<mxfile host="app.diagrams.net" modified="2022-01-24T11:05:12.802Z" agent="5.0 (Windows NT 10.0; Win64; x64) AppleWebKit/537.36 (KHTML, like Gecko) Chrome/97.0.4692.71 Safari/537.36" etag="Eup1FQTeTmQr5F5crWwI" version="16.4.5" type="github">
  <diagram id="mFJ4cPxP4Nz1lQu3-xth" name="Page-1">
    <mxGraphModel dx="1396" dy="730" grid="1" gridSize="10" guides="1" tooltips="1" connect="1" arrows="1" fold="1" page="1" pageScale="1" pageWidth="850" pageHeight="1100" math="0" shadow="0">
      <root>
        <mxCell id="0" />
        <mxCell id="1" parent="0" />
        <mxCell id="e2iO8RETkdHzR0rTZRDU-7" value="" style="rounded=1;whiteSpace=wrap;html=1;dashed=1;" vertex="1" parent="1">
          <mxGeometry x="90" y="55.25" width="960" height="710" as="geometry" />
        </mxCell>
        <mxCell id="e2iO8RETkdHzR0rTZRDU-1" value="" style="outlineConnect=0;dashed=0;verticalLabelPosition=bottom;verticalAlign=top;align=center;html=1;shape=mxgraph.aws3.cloudfront;fillColor=#F58536;gradientColor=none;" vertex="1" parent="1">
          <mxGeometry x="702.5" y="360" width="76.5" height="93" as="geometry" />
        </mxCell>
        <mxCell id="e2iO8RETkdHzR0rTZRDU-2" value="" style="outlineConnect=0;dashed=0;verticalLabelPosition=bottom;verticalAlign=top;align=center;html=1;shape=mxgraph.aws3.route_53;fillColor=#F58536;gradientColor=none;" vertex="1" parent="1">
          <mxGeometry x="442.5" y="367.5" width="70.5" height="85.5" as="geometry" />
        </mxCell>
        <mxCell id="e2iO8RETkdHzR0rTZRDU-3" value="" style="outlineConnect=0;dashed=0;verticalLabelPosition=bottom;verticalAlign=top;align=center;html=1;shape=mxgraph.aws3.s3;fillColor=#E05243;gradientColor=none;" vertex="1" parent="1">
          <mxGeometry x="572.5" y="363.75" width="76.5" height="93" as="geometry" />
        </mxCell>
        <mxCell id="e2iO8RETkdHzR0rTZRDU-4" value="" style="outlineConnect=0;dashed=0;verticalLabelPosition=bottom;verticalAlign=top;align=center;html=1;shape=mxgraph.aws3.certificate_manager;fillColor=#759C3E;gradientColor=none;" vertex="1" parent="1">
          <mxGeometry x="290" y="379.5" width="76.5" height="61.5" as="geometry" />
        </mxCell>
        <mxCell id="e2iO8RETkdHzR0rTZRDU-5" value="" style="outlineConnect=0;dashed=0;verticalLabelPosition=bottom;verticalAlign=top;align=center;html=1;shape=mxgraph.aws3.vpc;fillColor=#F58536;gradientColor=none;" vertex="1" parent="1">
          <mxGeometry x="150" y="80" width="67.5" height="81" as="geometry" />
        </mxCell>
      </root>
    </mxGraphModel>
  </diagram>
</mxfile>
